<mxfile host="app.diagrams.net" modified="2023-07-18T09:31:34.895Z" agent="Mozilla/5.0 (Windows NT 10.0; Win64; x64) AppleWebKit/537.36 (KHTML, like Gecko) Chrome/114.0.0.0 Safari/537.36" etag="9ifa4-MPvU1ex6YzwH07" version="21.6.1" type="device">
  <diagram name="第1頁" id="Z_pq-rKAsLLGsBAEIbzz">
    <mxGraphModel dx="1102" dy="543" grid="1" gridSize="10" guides="1" tooltips="1" connect="1" arrows="1" fold="1" page="1" pageScale="1" pageWidth="827" pageHeight="1169" math="0" shadow="0">
      <root>
        <mxCell id="0" />
        <mxCell id="1" parent="0" />
        <mxCell id="VViQVV_3qoe8jIl13zdi-2" value="&lt;font style=&quot;font-size: 20px;&quot;&gt;find contours&lt;/font&gt;" style="rounded=1;whiteSpace=wrap;html=1;" vertex="1" parent="1">
          <mxGeometry x="190" y="110" width="150.76923076923077" height="68.78048780487805" as="geometry" />
        </mxCell>
        <mxCell id="VViQVV_3qoe8jIl13zdi-3" value="&lt;font style=&quot;font-size: 20px;&quot;&gt;find pointer area&lt;/font&gt;" style="rounded=1;whiteSpace=wrap;html=1;" vertex="1" parent="1">
          <mxGeometry x="190" y="229.79268292682923" width="150.76923076923077" height="68.78048780487805" as="geometry" />
        </mxCell>
        <mxCell id="VViQVV_3qoe8jIl13zdi-4" style="edgeStyle=orthogonalEdgeStyle;rounded=0;orthogonalLoop=1;jettySize=auto;html=1;" edge="1" parent="1" source="VViQVV_3qoe8jIl13zdi-2" target="VViQVV_3qoe8jIl13zdi-3">
          <mxGeometry relative="1" as="geometry" />
        </mxCell>
        <mxCell id="VViQVV_3qoe8jIl13zdi-5" value="&lt;div style=&quot;line-height: 22px;&quot;&gt;&lt;font style=&quot;font-size: 20px;&quot;&gt;skeletonize&lt;/font&gt;&lt;/div&gt;" style="rounded=1;whiteSpace=wrap;html=1;" vertex="1" parent="1">
          <mxGeometry x="190" y="350.7317073170732" width="150.76923076923077" height="68.78048780487805" as="geometry" />
        </mxCell>
        <mxCell id="VViQVV_3qoe8jIl13zdi-6" style="edgeStyle=orthogonalEdgeStyle;rounded=0;orthogonalLoop=1;jettySize=auto;html=1;entryX=0.5;entryY=0;entryDx=0;entryDy=0;" edge="1" parent="1" source="VViQVV_3qoe8jIl13zdi-3" target="VViQVV_3qoe8jIl13zdi-5">
          <mxGeometry relative="1" as="geometry" />
        </mxCell>
      </root>
    </mxGraphModel>
  </diagram>
</mxfile>
